<svg xmlns="http://www.w3.org/2000/svg" viewBox="0 0 64 64" role="img" aria-label="OmePic">
  <defs>
    <filter id="paper" x="-10%" y="-10%" width="120%" height="120%">
      <feTurbulence type="fractalNoise" baseFrequency="0.9" numOctaves="3" seed="11" result="noise" />
      <feColorMatrix in="noise" type="matrix" values="0 0 0 0 0.08 0 0 0 0 0.06 0 0 0 0 0.03 0 0 0 0.18 0" />
      <feBlend in="SourceGraphic" mode="multiply" />
    </filter>
  </defs>
  <rect width="64" height="64" rx="14" fill="#f5ead2" />
  <path d="M8 17.5c12-4.1 32.1-5.2 48.1-1.6" fill="none" stroke="#221d19" stroke-width="3.4" stroke-linecap="round" opacity="0.15" />
  <g transform="rotate(-4 32 33)" filter="url(#paper)">
    <path d="M14.5 16.8c10.7-1.3 24.7-1.1 35.2.7.9 9.6.7 21.1-1.1 31.2-10.4 1.2-23.6 1-34.1-.4-1.2-9.4-1.4-21.6 0-31.5z" fill="#fff7df" stroke="#221d19" stroke-width="3.6" stroke-linejoin="round" />
    <path d="M19.2 34.3c4.1-4.2 6.7-6.2 9.6-10.5 4.7 6.5 7.1 10.2 10.1 14.4 1.8-2.4 3.4-4.2 5.3-6.4 2.3 3.2 4.2 6 5.7 9.6-9.2 1.1-21.9 1-31.2-.2.1-2.1.2-4.1.5-6.9z" fill="#67d2e7" stroke="#221d19" stroke-width="2.6" stroke-linejoin="round" />
    <path d="M39.2 22.2c2.6-.2 4.7 1.4 4.8 3.9.1 2.3-1.7 4.2-4.1 4.3-2.8.2-4.8-1.5-5-3.9-.2-2.2 1.6-4.1 4.3-4.3z" fill="#f5de47" stroke="#221d19" stroke-width="2.3" />
    <path d="M10.9 13.5c5.7-.9 11.2-1.1 16.7-.6.3 3.7.2 7.4-.3 11-5.7.8-11 .9-16.1.3-.5-3.5-.5-7.3-.3-10.7z" fill="#ef6f9c" stroke="#221d19" stroke-width="2.7" stroke-linejoin="round" />
    <path d="M15.2 18.9c2.7-.3 5.6-.3 8.5.1" fill="none" stroke="#221d19" stroke-width="1.8" stroke-linecap="round" />
  </g>
  <path d="M19.2 53.2c7.7 1.5 23.3 1.6 32.7-.4" fill="none" stroke="#221d19" stroke-width="2.2" stroke-linecap="round" opacity="0.28" />
</svg>
